:SAMPLES-PER-SECOND 30
:FULLY-SPECIFIED
:DEGREES
244
root  10.49966662 38.3311114 -3.973689042 13.32380104 28.59230232 -6.04501915
lfemur  -60.34359741 -13.21060181 -1.947411776
ltibia  -1.491570742e-006 -8.364404493e-007 37.26799393
lfoot  5.521815751e-007 6.626554489 -9.232930183
ltoes  -4.250644065 -19.5611806 -102.515957
rfemur  0.6741845608 0.8106306791 31.30519867
rtibia  -8.727266732e-007 2.533748784e-007 32.35239029
rfoot  -2.316020982e-006 -24.49749565 -28.40639877
rtoes  5.373923086 19.29304026 -105.8922705
lowerback  11.75349998 6.536340237 -1.699499965
upperback  3.409460068 8.301560402 -5.188980103
thorax  -2.408479929 4.169720173 -5.584780216
rclavicle  0 -9.442270133e-015 7.951389973e-016
rhumerus  37.08100128 -20.09939957 -21.06889915
rradius  -7.782816926e-012 0.001642658608 34.65010071
rwrist  0.002739921212 0.003270594636 0.4075739682
rthumb  -92.93752616 -24.25625642 -97.11982154
rhand  -7.920061211e-032 -33.2840004 9.303460121
rfingers  -90 -7.125020027 -90
lclavicle  0 -9.442270133e-015 7.951389973e-016
lhumerus  8.473489761 -31.05010033 67.72109985
lradius  1.032090038e-011 0.005718162749 140.102005
lwrist  1.816137865e-011 1.409039812e-011 5.840089798
lthumb  89.89689403 5.08795885 91.16245106
lhand  -1.496451383e-031 -27.76390076 20.11240005
lfingers  90 7.125020027 -90
lowerneck  -1.269739985 -7.60447979 -10.15060043
upperneck  -4.053040028 -9.71006012 26.44300079
head  1.029350162 -4.900599957 9.701760292
245
root  10.43451114 38.26333294 -3.897355673 12.70520115 29.38140106 -6.610798359
lfemur  -60.82478714 -13.86420345 -1.111684203
ltibia  -1.491570742e-006 -8.364404493e-007 38.2772789
lfoot  5.521815751e-007 6.313058853 -9.239390373
ltoes  -4.250644065 -19.5611806 -102.515957
rfemur  0.4194781482 0.9071055651 31.04739761
rtibia  -8.727266732e-007 2.533748784e-007 32.78087997
rfoot  -2.316020982e-006 -25.46669197 -28.62989616
rtoes  5.373923086 19.29304026 -105.8922705
lowerback  12.48270035 6.046060085 -1.219079971
upperback  3.388609886 7.67730999 -5.12969017
thorax  -2.821369886 3.852099895 -5.802289963
rclavicle  0 -9.442270133e-015 7.951389973e-016
rhumerus  36.12530136 -18.24720001 -21.7798996
rradius  -7.782816926e-012 0.001642658608 39.2356987
rwrist  0.002739921212 0.003270594636 8.143810272
rthumb  -92.93752616 -24.25625642 -97.11982154
rhand  -7.920061211e-032 -33.2840004 9.303460121
rfingers  -90 -7.125020027 -90
lclavicle  0 -9.442270133e-015 7.951389973e-016
lhumerus  7.10036993 -30.43530083 68.00240326
lradius  1.032090038e-011 0.005718162749 140.2279968
lwrist  1.816137865e-011 1.409039812e-011 6.478209972
lthumb  89.89689403 5.08795885 91.16245106
lhand  -1.496451383e-031 -27.76390076 20.11240005
lfingers  90 7.125020027 -90
lowerneck  -1.256360054 -7.352290154 -10.09449959
upperneck  -4.091229916 -9.342849731 26.77549934
head  0.9646180272 -4.722020149 9.83602047
246
root  10.36633319 38.17511131 -3.828244322 12.01819992 29.58900261 -7.20704937
lfemur  -61.21699142 -13.92380238 -0.5241668224
ltibia  -1.491570742e-006 -8.364404493e-007 39.64757919
lfoot  5.521815751e-007 5.942557812 -9.059108734
ltoes  -4.250644065 -19.5611806 -102.515957
rfemur  0.09196958691 1.444311142 30.58709717
rtibia  -8.727266732e-007 2.533748784e-007 33.51108551
rfoot  -2.316020982e-006 -26.35389328 -28.12369537
rtoes  5.373923086 19.29304026 -105.8922705
lowerback  13.32830048 5.676700115 -0.8084780574
upperback  3.409179926 7.206580162 -5.110280037
thorax  -3.250169992 3.608939886 -6.04723978
rclavicle  0 -9.442270133e-015 7.951389973e-016
rhumerus  35.21039963 -15.99440002 -21.73929977
rradius  -7.782816926e-012 0.001642658608 42.76060104
rwrist  0.002739921212 0.003270594636 14.36979961
rthumb  -92.93752616 -24.25625642 -97.11982154
rhand  -7.920061211e-032 -33.2840004 9.303460121
rfingers  -90 -7.125020027 -90
lclavicle  0 -9.442270133e-015 7.951389973e-016
lhumerus  6.475450039 -29.44249916 68.22530365
lradius  1.032090212e-011 0.005718162749 139.7389984
lwrist  1.816137865e-011 1.409039812e-011 7.159430027
lthumb  89.89689403 5.08795885 91.16245106
lhand  -1.496451383e-031 -27.76390076 20.11240005
lfingers  90 7.125020027 -90
lowerneck  -1.686939955 -7.14414978 -10.0085001
upperneck  -3.93337965 -9.067029953 26.6114006
head  1.017119884 -4.547639847 9.762769699
247
root  10.29039969 38.06888851 -3.76555563 11.35210133 29.21760368 -7.92634964
lfemur  -61.59119797 -13.37110233 -0.01424987428
ltibia  -1.491570742e-006 -8.364404493e-007 41.30788803
lfoot  5.521815751e-007 5.358355045 -9.005099297
ltoes  -4.250644065 -19.5611806 -102.515957
rfemur  -0.461122781 2.419029713 30.06040001
rtibia  -8.727266732e-007 2.533748784e-007 34.51738358
rfoot  -2.316020982e-006 -26.82839394 -27.2247982
rtoes  5.373923086 19.29304026 -105.8922705
lowerback  13.78409958 5.623730183 -0.6156709194
upperback  3.608520031 7.155240059 -5.014319897
thorax  -3.279730082 3.583420038 -6.084760189
rclavicle  0 -9.442270133e-015 7.951389973e-016
rhumerus  35.04399872 -14.93540096 -22.38260078
rradius  -7.782816926e-012 0.001642658608 45.35409927
rwrist  0.002739921212 0.003270594636 16.47439957
rthumb  -92.93752616 -24.25625642 -97.11982154
rhand  -7.920061211e-032 -33.2840004 9.303460121
rfingers  -90 -7.125020027 -90
lclavicle  0 -9.442270133e-015 7.951389973e-016
lhumerus  6.400630951 -28.64979935 68.66670227
lradius  1.032090038e-011 0.005718162749 139.0890045
lwrist  1.816137865e-011 1.409039812e-011 7.888609886
lthumb  89.89689403 5.08795885 91.16245106
lhand  -1.496451383e-031 -27.76390076 20.11240005
lfingers  90 7.125020027 -90
lowerneck  -2.250550032 -7.096199989 -9.703490257
upperneck  -4.02862978 -8.967599869 26.03280067
head  1.019780159 -4.469669819 9.492460251
248
root  10.21273305 37.96177661 -3.709399982 10.61530018 28.43520164 -8.645568848
lfemur  -61.76969147 -12.45880318 0.3162922263
ltibia  -1.491570742e-006 -8.364404493e-007 43.13898468
lfoot  5.521815751e-007 4.832866192 -8.969319344
ltoes  -4.250644065 -19.5611806 -102.515957
rfemur  -1.066634297 3.510500431 29.37859726
rtibia  -8.727266732e-007 2.533748784e-007 35.74318314
rfoot  -2.316020982e-006 -27.13549232 -26.13539886
rtoes  5.373923086 19.29304026 -105.8922705
lowerback  14.02439976 5.699240208 -0.7893760204
upperback  3.935780048 7.240859985 -4.764969826
thorax  -3.110660076 3.629790068 -5.74131012
rclavicle  0 -9.442270133e-015 7.951389973e-016
rhumerus  35.14360046 -13.77449894 -23.18230057
rradius  -7.782816926e-012 0.001642658608 48.07559967
rwrist  0.002739921212 0.003270594636 14.7130003
rthumb  -92.93752616 -24.25625642 -97.11982154
rhand  -7.920061211e-032 -33.2840004 9.303460121
rfingers  -90 -7.125020027 -90
lclavicle  0 -9.442270133e-015 7.951389973e-016
lhumerus  6.384740353 -27.80360031 69.38819885
lradius  1.032089952e-011 0.005718162749 138.4290009
lwrist  1.816137865e-011 1.409039812e-011 8.67193985
lthumb  89.89689403 5.08795885 91.16245106
lhand  -1.496451383e-031 -27.76390076 20.11240005
lfingers  90 7.125020027 -90
lowerneck  -2.635390043 -6.975739956 -9.577219963
upperneck  -4.233809948 -8.753669739 25.47809982
head  0.9501270056 -4.352779865 9.282349586
249
root  10.14255539 37.87066542 -3.634666833 9.889399529 27.17180061 -9.087769508
lfemur  -61.57509232 -11.23950291 0.1731529385
ltibia  -1.491570742e-006 -8.364404493e-007 45.0620842
lfoot  5.521815751e-007 4.142697334 -8.603189468
ltoes  -4.250644065 -19.5611806 -102.515957
rfemur  -1.536471605 4.622720242 28.29349899
rtibia  -8.727266732e-007 2.533748784e-007 37.05797958
rfoot  -2.316020982e-006 -27.54709244 -24.57409668
rtoes  5.373923086 19.29304026 -105.8922705
lowerback  14.18529987 5.884419918 -1.357950091
upperback  4.179759979 7.406990051 -4.699540138
thorax  -3.005110025 3.713409901 -5.385849953
rclavicle  0 -9.442270133e-015 7.951389973e-016
rhumerus  35.04669571 -12.77489948 -25.20499992
rradius  -7.782816926e-012 0.001642658608 51.43560028
rwrist  0.002739921212 0.003270594636 11.47710037
rthumb  -92.93752616 -24.25625642 -97.11982154
rhand  -7.920061211e-032 -33.2840004 9.303460121
rfingers  -90 -7.125020027 -90
lclavicle  0 -9.442270133e-015 7.951389973e-016
lhumerus  6.294300556 -27.12820053 70.00640106
lradius  1.032089952e-011 0.005718162749 137.7429962
lwrist  1.816137865e-011 1.409039812e-011 9.336000443
lthumb  89.89689403 5.08795885 91.16245106
lhand  -1.496451383e-031 -27.76390076 20.11240005
lfingers  90 7.125020027 -90
lowerneck  -2.452899933 -6.708069801 -9.49341011
upperneck  -4.39951992 -8.357959747 25.31419945
head  0.7847288251 -4.17993021 9.247520447
250
root  10.08186641 37.78022105 -3.552822053 9.273070335 25.4985981 -9.516671181
lfemur  -61.31759262 -9.705130577 -0.03496798873
ltibia  -1.491570742e-006 -8.364404493e-007 47.02128983
lfoot  5.521815751e-007 3.278314352 -7.804109573
ltoes  -4.250644065 -19.5611806 -102.515957
rfemur  -2.143765926 5.79668045 27.08649826
rtibia  -8.727266732e-007 2.533748784e-007 38.34458923
rfoot  -2.316020982e-006 -27.68439484 -22.72429848
rtoes  5.373923086 19.29304026 -105.8922705
lowerback  14.06869984 6.184899807 -2.084130049
upperback  4.277400017 7.704810143 -4.719049931
thorax  -2.907540083 3.858799934 -5.033410072
rclavicle  0 -9.442270133e-015 7.951389973e-016
rhumerus  34.68379593 -11.91539764 -28.0605011
rradius  -7.782816926e-012 0.001642658608 54.9510994
rwrist  0.002739921212 0.003270594636 9.619310379
rthumb  -92.93752616 -24.25625642 -97.11982154
rhand  -7.920061211e-032 -33.2840004 9.303460121
rfingers  -90 -7.125020027 -90
lclavicle  0 -9.442270133e-015 7.951389973e-016
lhumerus  6.108829498 -26.65469933 70.58769989
lradius  1.032090038e-011 0.005718162749 137.2120056
lwrist  1.816137865e-011 1.409039812e-011 10.17490005
lthumb  89.89689403 5.08795885 91.16245106
lhand  -1.496451383e-031 -27.76390076 20.11240005
lfingers  90 7.125020027 -90
lowerneck  -1.945899963 -6.428420067 -9.382780075
upperneck  -4.347229958 -7.997300148 25.29570007
head  0.6362568736 -4.03441 9.261719704
251
root  10.05751092 37.67933282 -3.506933423 8.631699562 23.95710373 -10.30070019
lfemur  -61.28089905 -8.200740814 0.08741949499
ltibia  -1.491570742e-006 -8.364404493e-007 49.01749802
lfoot  5.521815751e-007 2.534372807 -6.976460457
ltoes  -4.250644065 -19.5611806 -102.515957
rfemur  -2.906284094 6.57599926 26.15679932
rtibia  -8.727266732e-007 2.533748784e-007 39.51889038
rfoot  -2.316020982e-006 -27.35179901 -20.83819771
rtoes  5.373923086 19.29304026 -105.8922705
lowerback  13.74260044 6.38752985 -2.311640024
upperback  4.337069988 7.961110115 -4.567180157
thorax  -2.705840111 3.983809948 -4.743070126
rclavicle  0 -9.442270133e-015 7.951389973e-016
rhumerus  34.21599579 -10.91859913 -30.65539932
rradius  -7.782816926e-012 0.001642658608 58.26089859
rwrist  0.002739921212 0.003270594636 9.428990364
rthumb  -92.93752616 -24.25625642 -97.11982154
rhand  -7.920061211e-032 -33.2840004 9.303460121
rfingers  -90 -7.125020027 -90
lclavicle  0 -9.442270133e-015 7.951389973e-016
lhumerus  6.047540188 -26.38479996 71.373703
lradius  1.032090038e-011 0.005718162749 136.6719971
lwrist  1.816137865e-011 1.409039812e-011 10.79230022
lthumb  89.89689403 5.08795885 91.16245106
lhand  -1.496451383e-031 -27.76390076 20.11240005
lfingers  90 7.125020027 -90
lowerneck  -1.448930025 -6.206920147 -9.374739647
upperneck  -4.05907011 -7.764870167 25.18059921
head  0.5777598023 -3.938250065 9.247610092
